<?xml version="1.0" encoding="utf-8"?>
<!-- Generator: Adobe Illustrator 21.0.0, SVG Export Plug-In . SVG Version: 6.00 Build 0)  -->
<svg version="1.1"
	 id="Layer_1" xmlns:cc="http://creativecommons.org/ns#" xmlns:dc="http://purl.org/dc/elements/1.1/" xmlns:inkscape="http://www.inkscape.org/namespaces/inkscape" xmlns:rdf="http://www.w3.org/1999/02/22-rdf-syntax-ns#" xmlns:sodipodi="http://sodipodi.sourceforge.net/DTD/sodipodi-0.dtd" xmlns:svg="http://www.w3.org/2000/svg"
	 xmlns="http://www.w3.org/2000/svg" xmlns:xlink="http://www.w3.org/1999/xlink" x="0px" y="0px" viewBox="0 0 86 58"
	 style="enable-background:new 0 0 86 58;" xml:space="preserve">
<g transform="translate(0,-952.36218)">
	<path d="M4,952.4c-2.2,0-4,1.8-4,4v50c0,2.2,1.8,4,4,4h78c2.2,0,4-1.8,4-4v-50c0-2.2-1.8-4-4-4C82,952.4,4,952.4,4,952.4z
		 M10.6,958.4h64.8L43,988.3C43,988.3,10.6,958.4,10.6,958.4z M6,962.3l20.2,18.6L6,1000.2L6,962.3L6,962.3z M80,962.3v38
		l-20.2-19.4L80,962.3L80,962.3z M30.6,985l10.4,9.6c1.1,1.1,2.9,1.1,4.1,0l10.4-9.6l20.2,19.4H10.4L30.6,985z"/>
</g>
</svg>